<svg xmlns="http://www.w3.org/2000/svg" viewBox="0 0 389 166"><path d="m33.518 165.378 8.409-31.312h-5.335l-5.915 25.752-7.017-25.752h-5.161l-7.017 25.752-5.915-25.752H0l8.583 31.312h5.799l6.726-24.766 6.727 24.766h5.683ZM65.476 134.066c-5.275 0-7.766 2.49-7.766 7.765v15.781c0 5.276 2.491 7.766 7.766 7.766h9.517c5.275 0 7.766-2.49 7.766-7.766v-15.781c0-5.275-2.491-7.765-7.766-7.765h-9.517Zm11.954 23.488c0 2.205-.87 3.134-3.134 3.134h-8.182c-2.263 0-3.133-.929-3.133-3.134v-15.665c0-2.205.87-3.133 3.133-3.133h8.182c2.264 0 3.134.928 3.134 3.133v15.665ZM109.324 134.066c-5.275 0-7.766 2.49-7.766 7.765v15.781c0 5.276 2.491 7.766 7.766 7.766h9.517c5.275 0 7.766-2.49 7.766-7.766v-15.781c0-5.275-2.491-7.765-7.766-7.765h-9.517Zm11.954 23.488c0 2.205-.87 3.134-3.134 3.134h-8.182c-2.263 0-3.133-.929-3.133-3.134v-15.665c0-2.205.87-3.133 3.133-3.133h8.182c2.264 0 3.134.928 3.134 3.133v15.665ZM154.565 133.834c-6.668 0-9.159 2.49-9.159 7.939v15.898c0 5.449 2.491 7.939 9.159 7.939 5.977 0 8.298-1.911 11.025-4.633v4.401h5.271v-42.332h-5.271v15.421c-2.727-2.722-5.048-4.633-11.025-4.633Zm-3.888 8.113c0-2.436.87-3.307 4.468-3.307 4.99 0 7.37 1.045 10.445 3.133v15.898c-3.075 2.088-5.455 3.133-10.445 3.133-3.598 0-4.468-.871-4.468-3.308v-15.549ZM221.322 165.378l8.409-31.312h-5.335l-5.915 25.752-7.017-25.752h-5.161l-7.017 25.752-5.915-25.752h-5.567l8.583 31.312h5.799l6.726-24.766 6.727 24.766h5.683ZM253.28 134.066c-5.275 0-7.766 2.49-7.766 7.765v15.781c0 5.276 2.491 7.766 7.766 7.766h9.517c5.275 0 7.766-2.49 7.766-7.766v-15.781c0-5.275-2.491-7.765-7.766-7.765h-9.517Zm11.954 23.488c0 2.205-.87 3.134-3.134 3.134h-8.182c-2.263 0-3.133-.929-3.133-3.134v-15.665c0-2.205.87-3.133 3.133-3.133h8.182c2.264 0 3.134.928 3.134 3.133v15.665ZM307.277 139.104v-5.038h-2.32c-4.582 0-7.076 2.142-9.628 4.633v-4.633h-5.271v31.312h5.271v-23.2c2.842-1.74 5.452-3.074 9.164-3.074h2.784ZM344.223 165.378h5.8l-10.846-19.367 10.034-11.945h-6.38l-12.876 16.12v-27.14h-5.271v42.332h5.271v-8.408l5.916-7.016 8.352 15.424ZM382.742 143.282h5.155v-1.044c0-5.683-2.491-8.172-7.767-8.172h-7.66c-5.275 0-7.766 2.489-7.766 8.868 0 5.279 2.085 7.02 6.78 7.832l8.936 1.451c2.148.348 2.96.87 2.96 4.177 0 3.597-.87 4.526-3.134 4.526h-7.66c-2.205 0-3.133-.929-3.133-3.946v-1.334h-5.155v1.218c0 6.03 2.49 8.52 7.766 8.52h8.821c5.275 0 7.766-2.49 7.766-9.332 0-5.744-2.085-7.484-6.78-8.297l-8.937-1.45c-2.147-.348-2.959-.87-2.959-3.713 0-3.133.87-4.062 3.134-4.062h6.499c2.263 0 3.134.929 3.134 3.539v1.219ZM59.26 92.579h14.55L39.682 37.032 71.429 0H56.085L13.359 50.654V0H.809v92.579h12.55V67.583l17.857-20.764 28.044 45.76ZM119.716 21.165c-12.033 0-17.713 5.679-17.713 17.711v2.382h12.02v-2.646c0-5.161 1.986-7.146 7.147-7.146h16.015c5.162 0 7.147 1.985 7.147 7.146v10.85c-10.72.397-20.25 1.323-26.603 1.985-11.899 1.323-18.107 5.822-18.107 20.774 0 14.812 5.68 20.887 20.226 20.887 12.97 0 18.925-3.83 24.484-10.698v10.169h12.021V38.874c0-12.03-5.68-17.709-17.712-17.709h-18.925Zm24.616 36.228V75c-7.014 4.764-12.441 7.675-23.161 7.675-7.543 0-9.529-2.514-9.529-11.115 0-8.469 2.118-10.057 7.676-10.851l25.014-3.316ZM234.398 32.657V21.165h-5.291c-10.45 0-16.138 4.887-21.959 10.567V21.165h-12.021v71.414h12.021V39.667c6.482-3.968 12.434-7.01 20.9-7.01h6.35ZM283.606 31.334h17.064V21.165h-17.064V3.968h-11.889v17.197h-10.714v10.169h10.582v43.534c0 12.032 5.68 17.711 17.709 17.711h11.376V82.146h-9.921c-5.027 0-7.143-2.118-7.143-7.146V31.334ZM343.661 59.774h44.181V38.88c0-12.037-5.68-17.715-17.712-17.715h-20.778c-12.032 0-17.712 5.678-17.712 17.715v35.985c0 12.035 5.68 17.714 17.712 17.714h20.778c12.032 0 17.712-5.679 17.712-17.714v-4.898h-12.021v5.295c0 5.03-2.117 7.148-7.147 7.148h-17.867c-5.029 0-7.146-2.118-7.146-7.148V59.774Zm25.013-28.44c5.162 0 7.147 2.118 7.147 7.149v12.312h-32.16V38.483c0-5.031 2.117-7.149 7.146-7.149h17.867Z" style="fill-rule:nonzero"/></svg>